<svg class="w-12 transition-all duration-300 ease-out fill-current md:w-16 lg:w-20" xmlns="http://www.w3.org/2000/svg" viewBox="0 0 94.49 101.98">
                <path d="M70.58,20.5h-.12v19.27h-11.99V0h13.51l10.4,17.51h.12V0h11.98V39.77h-12.51l-11.4-19.27h0Z" />
                <path d="M14.1,85.54H0V45.77H14.8c14.04,0,21.07,6.46,21.09,19.39,0,13.69-7.16,20.38-21.79,20.38Zm-.35-30.02h-1.59v20.15h1.47c7.4,0,9.81-2.53,9.81-10.34,0-7.23-2.53-9.81-9.69-9.81Z" />
                <path d="M52.6,0V85.54h-12.16V0h12.16Z" />
                <path d="M57.43,75.72l19.52-20.09h-18.53v-9.87h34.88v10.1l-19.45,19.74h20.65v9.93H57.43v-9.82h0Z" />
                <path d="M4.09,101.8H1.45v-9.74h2.68c2.41-.2,4.52,1.59,4.72,4,.02,.26,.02,.51,0,.77,0,3.34-1.57,4.98-4.75,4.98h-.01Zm-.07-9.22h-1.97v8.67h1.94c2.86,0,4.23-1.42,4.23-4.42,0-2.68-1.55-4.26-4.2-4.26h0Z" />
                <path d="M19.23,92.07v9.74h-.6v-9.74h.6Z" />
                <path d="M33.91,92.44c-3.21,0-4.29,2.16-4.29,4.5,0,3.05,1.48,4.52,3.93,4.52,.76,.02,1.51-.08,2.23-.32v-4.14h.59v4.49c-.93,.35-1.91,.52-2.91,.49-2.55,0-4.46-1.41-4.46-4.99,0-3.17,1.71-5.06,4.8-5.06,.79,0,1.57,.15,2.3,.46v.55c-.69-.32-1.44-.48-2.2-.49h.01Z" />
                <path d="M47,92.07v9.74h-.6v-9.74h.6Z" />
                <path d="M59.76,101.8h-.62v-9.21h-3.11v-.53h6.82v.53h-3.09v9.21Z" />
                <path d="M78.32,101.8h-.65l-1.19-3.05h-4.62l-1.19,3.05h-.62l3.78-9.74h.69l3.79,9.74h.01Zm-6.32-3.58h4.32l-2.16-5.48s-2.16,5.48-2.16,5.48Z" />
                <path d="M87.65,92.07h.6v9.21h4.66v.53h-5.27v-9.74h0Z" />
            </svg>